<?xml version="1.0" encoding="UTF-8"?>
<svg version="1.1" xmlns="http://www.w3.org/2000/svg" width="96" height="96">
<path d="M0 0 C9.1397274 6.35958219 15.38194133 14.7578016 17.8046875 25.6796875 C18.63373388 39.39293012 17.99879105 50.66893084 8.77734375 61.61328125 C0.64575857 70.131318 -8.00333743 74.68218278 -19.83056641 75.15039062 C-32.34486926 75.30543051 -41.96818073 72.48819703 -51.1953125 63.6796875 C-60.00689613 54.44933554 -62.81177304 44.83273821 -62.66821289 32.31713867 C-62.19233578 20.07716671 -57.20347295 11.20672872 -48.3828125 2.9296875 C-35.21404718 -8.14117471 -14.48798376 -8.71341372 0 0 Z " fill="#C9DA3C" transform="translate(70.1953125,13.3203125)"/>
<path d="M0 0 C9.1397274 6.35958219 15.38194133 14.7578016 17.8046875 25.6796875 C18.63373388 39.39293012 17.99879105 50.66893084 8.77734375 61.61328125 C0.64575857 70.131318 -8.00333743 74.68218278 -19.83056641 75.15039062 C-32.34486926 75.30543051 -41.96818073 72.48819703 -51.1953125 63.6796875 C-60.00689613 54.44933554 -62.81177304 44.83273821 -62.66821289 32.31713867 C-62.19233578 20.07716671 -57.20347295 11.20672872 -48.3828125 2.9296875 C-35.21404718 -8.14117471 -14.48798376 -8.71341372 0 0 Z M-19.1953125 0.6796875 C-18.5353125 1.6696875 -17.8753125 2.6596875 -17.1953125 3.6796875 C-17.5253125 4.6696875 -17.8553125 5.6596875 -18.1953125 6.6796875 C-18.8553125 6.6796875 -19.5153125 6.6796875 -20.1953125 6.6796875 C-19.8653125 5.6896875 -19.5353125 4.6996875 -19.1953125 3.6796875 C-20.1853125 4.0096875 -21.1753125 4.3396875 -22.1953125 4.6796875 C-23.42501128 8.19159559 -23.42501128 8.19159559 -24.1953125 11.6796875 C-24.8553125 11.6796875 -25.5153125 11.6796875 -26.1953125 11.6796875 C-25.916875 10.720625 -25.916875 10.720625 -25.6328125 9.7421875 C-25.4884375 9.0615625 -25.3440625 8.3809375 -25.1953125 7.6796875 C-25.6903125 7.1846875 -25.6903125 7.1846875 -26.1953125 6.6796875 C-30.26810939 7.06391362 -33.66105368 7.55913221 -37.1953125 9.6796875 C-37.1953125 10.9996875 -37.1953125 12.3196875 -37.1953125 13.6796875 C-37.8553125 13.6796875 -38.5153125 13.6796875 -39.1953125 13.6796875 C-39.1953125 12.3596875 -39.1953125 11.0396875 -39.1953125 9.6796875 C-43.12606894 10.25421496 -43.12606894 10.25421496 -46.1953125 12.6796875 C-45.87332284 15.77895569 -45.87332284 15.77895569 -45.1953125 18.6796875 C-46.5153125 18.3496875 -47.8353125 18.0196875 -49.1953125 17.6796875 C-49.8553125 18.9996875 -50.5153125 20.3196875 -51.1953125 21.6796875 C-48.43266961 22.27701569 -46.03498481 22.6796875 -43.1953125 22.6796875 C-42.2053125 23.0096875 -41.2153125 23.3396875 -40.1953125 23.6796875 C-40.5253125 24.6696875 -40.8553125 25.6596875 -41.1953125 26.6796875 C-39.8753125 26.6796875 -38.5553125 26.6796875 -37.1953125 26.6796875 C-36.8653125 27.6696875 -36.5353125 28.6596875 -36.1953125 29.6796875 C-34.5453125 30.0096875 -32.8953125 30.3396875 -31.1953125 30.6796875 C-34.4953125 30.3496875 -37.7953125 30.0196875 -41.1953125 29.6796875 C-41.8553125 28.0296875 -42.5153125 26.3796875 -43.1953125 24.6796875 C-47.89141326 23.84077241 -51.79054454 23.14587568 -56.3203125 24.8671875 C-59.67245817 29.89540601 -58.78574565 36.1492625 -57.81640625 41.9453125 C-57.27719334 43.94944759 -57.27719334 43.94944759 -54.8828125 45.4296875 C-52.08482783 46.96084133 -52.08482783 46.96084133 -48.1953125 46.6796875 C-48.2365625 47.5665625 -48.2778125 48.4534375 -48.3203125 49.3671875 C-48.19441535 52.70346199 -47.54190508 54.66965703 -46.1953125 57.6796875 C-46.07414062 58.32292969 -45.95296875 58.96617188 -45.828125 59.62890625 C-44.65871768 63.41865218 -41.41792163 65.5640315 -38.1953125 67.6796875 C-34.93391898 68.63136129 -34.93391898 68.63136129 -32.1953125 68.6796875 C-31.7415625 67.8753125 -31.2878125 67.0709375 -30.8203125 66.2421875 C-29.1953125 63.6796875 -29.1953125 63.6796875 -27.1953125 62.6796875 C-27.411875 61.101875 -27.411875 61.101875 -27.6328125 59.4921875 C-27.1953125 55.6796875 -27.1953125 55.6796875 -25.671875 54.2421875 C-23.7578125 52.9921875 -23.7578125 52.9921875 -21.82421875 51.91796875 C-19.76537475 50.35285233 -19.56972473 49.18455802 -19.1953125 46.6796875 C-20.2678125 46.6590625 -21.3403125 46.6384375 -22.4453125 46.6171875 C-26.1953125 45.6796875 -26.1953125 45.6796875 -27.55078125 44.16015625 C-29.2545756 41.23848724 -30.1953125 39.08255454 -30.1953125 35.6796875 C-27.7203125 40.1346875 -27.7203125 40.1346875 -25.1953125 44.6796875 C-19.95431595 44.26862895 -16.95492056 43.43929556 -13.1953125 39.6796875 C-13.1953125 39.0196875 -13.1953125 38.3596875 -13.1953125 37.6796875 C-15.5053125 37.0196875 -17.8153125 36.3596875 -20.1953125 35.6796875 C-10.7251898 35.40568757 -10.7251898 35.40568757 -6.9765625 38.52734375 C-5.77897685 39.96596889 -4.6276953 41.44490556 -3.53515625 42.96484375 C-2.87193359 43.81369141 -2.87193359 43.81369141 -2.1953125 44.6796875 C-1.5353125 44.6796875 -0.8753125 44.6796875 -0.1953125 44.6796875 C0.0521875 43.6071875 0.2996875 42.5346875 0.5546875 41.4296875 C1.80351896 37.68319313 2.82957408 36.15894868 5.8046875 33.6796875 C5.7015625 34.4221875 5.5984375 35.1646875 5.4921875 35.9296875 C5.53657136 38.90683203 5.53657136 38.90683203 8.1796875 40.9921875 C10.56497667 42.85994003 10.56497667 42.85994003 12.8046875 42.6796875 C12.4746875 41.0296875 12.1446875 39.3796875 11.8046875 37.6796875 C12.4646875 37.3496875 13.1246875 37.0196875 13.8046875 36.6796875 C13.60633784 25.17540718 11.53582841 17.37447074 3.6171875 8.8671875 C-3.46585298 2.1644445 -9.6335792 -0.98322264 -19.1953125 0.6796875 Z " fill="#2397EF" transform="translate(70.1953125,13.3203125)"/>
<path d="M0 0 C1.6875 1.5625 1.6875 1.5625 3 3 C2.34 3 1.68 3 1 3 C1 3.66 1 4.32 1 5 C2.32 5 3.64 5 5 5 C5.33 5.66 5.66 6.32 6 7 C7.97888961 7.72693904 9.97954558 8.39816251 12 9 C12 9.33 12 9.66 12 10 C10.20759337 9.88610125 8.41605165 9.75852313 6.625 9.625 C5.12839844 9.52058594 5.12839844 9.52058594 3.6015625 9.4140625 C1 9 1 9 -1 7 C-1 5.68 -1 4.36 -1 3 C-1.94875 3.020625 -2.8975 3.04125 -3.875 3.0625 C-7 3 -7 3 -9 2 C-8.67 1.34 -8.34 0.68 -8 0 C-4.71585695 -0.95067299 -3.30306592 -1.10102197 0 0 Z " fill="#2B9AE7" transform="translate(28,35)"/>
<path d="M0 0 C2.33524782 2.25740623 4.18705073 4.2805761 6 7 C6 7.99 6 8.98 6 10 C9.465 9.505 9.465 9.505 13 9 C13 9.99 13 10.98 13 12 C10.25 12.75 10.25 12.75 7 13 C3.78166605 10.60923764 1.78405349 7.56810699 0 4 C0 2.68 0 1.36 0 0 Z " fill="#339DDF" transform="translate(39,48)"/>
<path d="M0 0 C0.66 0 1.32 0 2 0 C1.34 2.31 0.68 4.62 0 7 C-1.32 7.33 -2.64 7.66 -4 8 C-3.67 6.02 -3.34 4.04 -3 2 C-2.01 2 -1.02 2 0 2 C0 1.34 0 0.68 0 0 Z " fill="#B6D251" transform="translate(50,72)"/>
<path d="M0 0 C0 1.65 0 3.3 0 5 C-0.33 4.34 -0.66 3.68 -1 3 C-1.94875 3.020625 -2.8975 3.04125 -3.875 3.0625 C-7 3 -7 3 -9 2 C-8.67 1.34 -8.34 0.68 -8 0 C-4.71585695 -0.95067299 -3.30306592 -1.10102197 0 0 Z " fill="#44A4CC" transform="translate(28,35)"/>
<path d="M0 0 C1.32 0.66 2.64 1.32 4 2 C3.67 2.99 3.34 3.98 3 5 C1.35 4.67 -0.3 4.34 -2 4 C-1.34 2.68 -0.68 1.36 0 0 Z " fill="#BCD54A" transform="translate(21,31)"/>
</svg>
